<svg xmlns="http://www.w3.org/2000/svg" viewBox="0 0 1400 980">
  <path fill="none" pointer-events="none" d="M6.5112127 52.98557115h1399.99876117v880.765908H6.5112127z"/>
  <path d="M6.56123895-136.588699h1371.71616006v1371.71616005H6.56123895V-136.588699z" fill="none"/>
  <path d="M1359.61187086 639.88819836a247.61848711 248.30436654 0 01-247.61581832 248.30436655 247.61848711 248.30436654 0 01-247.61848711-248.30436655 247.61848711 248.30436654 0 01247.6184871-248.30436654 247.61848711 248.30436654 0 01247.61848712 248.30436654z" fill="#5f4b8b"/>
  <path d="M1344.47982273 702.47936677a646.56012434 202.22234271 0 01-646.55745556 202.22234271 646.56012434 202.22234271 0 01-646.56012434-202.2223427 646.56012434 202.22234271 0 01646.56012435-202.21967393 646.56012434 202.22234271 0 01646.55745555 202.21967392z" fill="#5f4b8b"/>
  <path d="M527.34121717 645.39124656a247.61848711 248.30436654 0 01-247.6184871 248.30436654 247.61848711 248.30436654 0 01-247.6211559-248.30169775 247.61848711 248.30436654 0 01247.6184871-248.30703533 247.61848711 248.30436654 0 01247.61848711 248.30436654z" fill="#5f4b8b"/>
  <path d="M865.75199308 431.47692803a334.28482416 360.42029989 0 01-334.28482416 360.4202999 334.28482416 360.42029989 0 01-334.28482415-360.4202999A334.28482416 360.42029989 0 01531.46716892 71.05395935a334.28482416 360.42029989 0 01334.28482416 360.4202999z" fill="#5f4b8b"/>
  <path d="M1078.98043217 442.48035562a224.23186669 202.22234271 0 01-224.23186668 202.22234271 224.23186669 202.22234271 0 01-224.2318667-202.2223427 224.23186669 202.22234271 0 01224.2318667-202.22234272 224.23186669 202.22234271 0 01224.23186669 202.22234271z" fill="#5f4b8b"/>
  <path d="M1106.08201045 377.69810935h-21.22223047c-10.63246557-92.83124555-89.842199-165.16617193-185.61979043-165.16617193-28.99375149 0-49.83167597 5.89269176-66.86924127 13.7496141-68.96157386-104.3177244-188.30993232-170.71725837-309.53712005-170.71725837-194.4161274 0-346.85750119 151.37385716-348.13852113 345.10677393C76.52627843 440.29728413 9.23003051 539.3201261 9.23003051 646.84040038c0 148.42751127 120.92828307 269.18499168 269.526597 269.18499168h827.32538294c148.59831394 0 269.526597-120.7574804 269.526597-269.18499169 0-153.42348907-115.8896046-269.14229102-269.526597-269.14229102zm.04270066 495.66931845h-827.3680836c-125.07024756-.04270066-226.82593207-101.62758252-226.82593207-226.52702743 0-94.62467347 62.04406613-181.43512526 150.86144918-210.9839854l14.6036274-4.8678758v-27.7554322c0-170.97346236 134.20818986-304.92544823 305.43785621-304.92544823 111.23523213 0 225.16060615 67.12544526 283.5324151 167.00230053l10.88866956 18.66019057 18.53208858-11.10217288c18.1477826-10.8459689 35.09994657-17.59267395 63.49588874-17.59267395 79.46593743 0 144.11474413 64.5207047 144.11474413 143.81583947v21.35033246h62.72727677c129.2976134 0 226.82593209 97.31481536 226.82593209 226.4416261 0 124.8994449-101.75568452 226.48432676-226.82593209 226.48432676z"/>
  <path d="M1078.98043217 442.48035562a224.23186669 202.22234271 0 01-224.23186668 202.22234271 224.23186669 202.22234271 0 01-224.2318667-202.2223427 224.23186669 202.22234271 0 01224.2318667-202.22234272 224.23186669 202.22234271 0 01224.23186669 202.22234271z" fill="none"/>
  <path d="M128.74909393 99.874554h772.96941098v772.96941097H128.74909393V99.874554z" fill="none"/>
  <path d="M516.99527033 264.13756532v-64.74025847l-72.98940043 64.74025847h72.98940043z" fill="#9a716e"/>
  <path d="M669.63540837 387.3474939a151.7733579 128.77654881 0 01-151.7733579 128.7780994 151.7733579 128.77654881 0 01-151.7733579-128.77654881 151.7733579 128.77654881 0 01151.77180731-128.77965 151.7733579 128.77654881 0 01151.7749085 128.7780994z" fill="#9a716e"/>
  <path d="M363.54572399 472.26403717h309.44361184v304.72516468H363.54572399V472.26403717z" fill="#9a716e"/>
  <path d="M640.13852351 606.52812609c0 18.990083-15.5446707 34.38279583-34.72082457 34.38279583m34.72082457-34.38279583c0 18.990083-15.5446707 34.38279583-34.72082457 34.38279583-19.17460328 0-34.71927398-15.39271282-34.71927398-34.38279583m0 0c0-18.9885324 15.5446707-34.38124523 34.71927398-34.38124523 19.17615387 0 34.72082457 15.39271282 34.72082457 34.38124523v137.5311833c0 18.98853242-15.5446707 34.38279583-34.72082457 34.38279583-19.17460328 0-34.71927398-15.39426341-34.71927398-34.38279582V606.5281261zm-106.69613876-.03876476c0 18.990083-15.5462213 34.38279582-34.72082458 34.38279582m34.71927399-34.38279582c0 18.990083-15.5446707 34.38279582-34.7177234 34.38279582-19.17615387 0-34.72082457-15.39271282-34.72082457-34.38279582m0 0c0-18.98853241 15.5446707-34.38124524 34.71927398-34.38124524 19.17460329 0 34.71927399 15.39271283 34.71927399 34.38124524v137.5311833c0 18.9885324-15.5446707 34.38279583-34.7177234 34.38279583-19.17615387 0-34.72082457-15.39426342-34.72082457-34.38279583v-137.5311833z" fill="#77353d"/>
  <path d="M739.74846326 780.44391768c0 6.04420213-98.85015035 10.9440684-220.78859465 10.9440684m220.78859465-10.9440684c0 6.04420213-98.85015035 10.9440684-220.78859465 10.9440684-121.93999488 0-220.79169582-4.89986627-220.79169582-10.9440684m0 0c0-6.04420214 98.85015035-10.94406841 220.79014523-10.94406841 121.9384443 0 220.79014524 4.89986627 220.79014524 10.9440684v43.77627365c0 6.04420214-98.85015035 10.9440684-220.78859465 10.9440684-121.93999488 0-220.79169582-4.89986626-220.79169582-10.9440684v-43.77627364zm436.18733638-361.35428374c0 6.04420213-97.19101841 10.9440684-217.08268312 10.9440684m217.08268312-10.9440684c0 6.04420213-97.19101841 10.9440684-217.08268312 10.9440684s-217.08268313-4.89986627-217.08268313-10.9440684m0 0c0-6.04420213 97.19101842-10.94406841 217.08268313-10.94406841s217.08268312 4.89986628 217.08268312 10.9440684v43.77627365c0 6.04420214-97.19101841 10.9440684-217.08268312 10.9440684s-217.08268313-4.89986626-217.08268313-10.9440684v-43.77627364z" fill="#9a716e"/>
  <path d="M552.99068037 546.26442267c0 25.93983004-16.29670714 46.96738908-36.40476596 46.96738908m36.40631656-46.96738908c0 25.93983004-16.29980833 46.96738908-36.40631656 46.96738908-20.10495763 0-36.40476596-21.02755904-36.40476596-46.96738908m0 0c0-25.93983005 16.29980833-46.9673891 36.40476596-46.9673891 20.10650823 0 36.40631656 21.02755905 36.40631656 46.9673891V734.133979c0 25.93827945-16.29980833 46.96738908-36.40631656 46.96738908-20.10495763 0-36.40476596-21.02910963-36.40476596-46.96738908V546.26442267z" fill="#77353d"/>
  <path d="M365.56769413 833.6198715h303.37615084v35.05575214H365.56769413V833.6198715zM540.1781503 173.26985535a21.23688877 20.56083127 0 01-21.23688877 20.56238186 21.23688877 20.56083127 0 01-21.23533818-20.56083128 21.23688877 20.56083127 0 0121.23533818-20.56393245 21.23688877 20.56083127 0 0121.23688877 20.56238186zm-25.65762256 89.4613243v-63.4672236l74.87026682 63.465673h-74.86871623z" fill="#9a716e"/>
  <path d="M715.52668759 404.98236072h-39.44082234c-2.26231168-58.5223902-35.88996988-109.0778459-84.41415192-135.09675607-2.969381-29.41160238-39.28731388-57.16717401-58.9829156-70.1766291 8.50964118-5.26425506 14.2111628-14.6561823 14.2111628-25.37696565 0-14.19100511-9.96564575-26.0793832-23.25885891-29.09218072v-34.48203363a6.59001002 6.59001002 0 10-13.18002005 0v34.48203362c-13.29321316 3.01124693-23.2588589 14.899625-23.2588589 29.09218072 0 10.72078336 5.7015216 20.1127106 14.21116278 25.37696566-19.6987029 13.01255626-56.02748992 40.77433025-58.98446618 70.19368558-48.48696787 26.02356194-82.10067076 76.56506234-84.40794956 135.08125017h-39.44547412c-17.31389457 0-31.39945952 14.08556495-31.39945952 31.39945952v9.30354357c0 17.31389456 14.08556495 31.39945952 31.39945952 31.39945952h36.8265266v290.73418574h-36.8265266c-17.31389457 0-31.39945952 14.08556496-31.39945952 31.39945953v9.30354356c0 17.31389457 14.08556495 31.39945952 31.39945952 31.39945952h36.8265266v27.52298304a6.59001002 6.59001002 0 006.59001003 6.59001003h310.11811875a6.59001002 6.59001002 0 006.59001002-6.59001003v-27.52298304h36.8265266c17.31389457 0 31.39945953-14.08556495 31.39945953-31.39945952v-9.30354356c0-17.31389457-14.08556496-31.39945953-31.39945953-31.39945953h-36.8265266V477.08482333h36.8265266c17.31389457 0 31.39945953-14.08556496 31.39945953-31.39945953v-9.30354356c0-17.31389457-14.08556496-31.39945952-31.39945953-31.39945952zm-198.475596-247.3191997c9.19190104 0 16.66884889 7.47694784 16.66884889 16.66884888s-7.47694785 16.66884888-16.66884889 16.66884888-16.66884888-7.47694784-16.66884888-16.66884888 7.47849843-16.66884888 16.66884888-16.66884888zm0 47.73648202c17.10146366 10.18117783 50.54770277 34.14710605 59.41397978 57.34394133a157.47643011 157.47643011 0 00-59.41397978-11.58136114c-20.99499664 0-41.05033538 4.12302039-59.41863155 11.59221528 8.86007465-23.19993647 42.31406671-47.17206705 59.41863155-57.35479547zm0 58.94260024c38.33680184 0 73.26230438 14.95699686 99.3385864 39.37104576h-26.22048695a6.59001002 6.59001002 0 100 13.18002005h38.6717294a147.3402194 147.3402194 0 0124.84201191 42.63814014h-85.22045903a6.59001002 6.59001002 0 100 13.18002005h89.4628749a147.19756506 147.19756506 0 014.97119344 32.27244203H371.2102933c3.35392745-78.1234059 67.48015205-140.64166803 145.8407983-140.64166803zm148.46904935 596.513752h-296.9380987v-20.93297303h296.9380987v20.93297302zm68.22598613-61.6359761v2.71353354h-34.26495094a6.59001002 6.59001002 0 100 13.18002004h33.01207374c-2.64995933 6.79468799-9.2477223 11.62942946-16.96656228 11.62942946h-396.951192c-10.04627645 0-18.21943947-8.17316302-18.21943947-18.21943948v-9.30354356c0-10.04627646 8.17316302-18.21943948 18.21943947-18.21943948h396.951192c10.04627646 0 18.21943948 8.17316302 18.21943948 18.21943948zm-280.1901697-31.39945953H424.6529487v-99.34944052a6.59001002 6.59001002 0 10-13.18002004 0v99.34944052h-7.69403053V600.1784576c0-13.72427734 11.16425227-24.88852962 24.88852962-24.88852962s24.88852962 11.16580287 24.88852962 24.88852962v167.64210204zm88.38366384 0h-21.93000276v-74.5415416a6.59001002 6.59001002 0 10-13.18002005 0v74.5415416h-14.66703643V535.05365267c0-13.72427734 11.16425228-24.88852962 24.88852962-24.88852962 13.72427735 0 24.88852962 11.16580287 24.88852962 24.88852962v232.76690698zm88.38366385 0h-5.6550039v-104.0012123a6.59001002 6.59001002 0 10-13.18002005 0v104.0012123h-30.9420353V600.1784576c0-13.72427734 11.16425228-24.88852962 24.88852963-24.88852962 13.72427734 0 24.88852962 11.16580287 24.88852962 24.88852962v167.64210204zm35.19685588 0H643.5033051V600.1784576c0-20.99189546-17.0782048-38.06854966-38.06854966-38.06854966-20.99034487 0-38.06854967 17.0782048-38.06854967 38.06854966v167.64210204h-12.24656451V535.05365267c0-20.99189545-17.0782048-38.06854966-38.06854967-38.06854966-20.99034486 0-38.06854966 17.0782048-38.06854966 38.06854966v232.76690698h-12.24656451V600.1784576c0-20.99189546-17.0782048-38.06854966-38.06854967-38.06854966s-38.06854968 17.0782048-38.06854968 38.06854966v167.64210204h-22.01683584V507.60509798h61.1087753a6.59001002 6.59001002 0 100-13.18002004h-61.1087753v-17.34025461h296.9380987v290.73573632zm68.22598613-322.13519585c0 10.04627646-8.17316302 18.21943948-18.21943948 18.21943948h-396.951192c-8.7515333 0-16.07652327-6.20391296-17.82093769-14.44375138h82.42164301a6.59001002 6.59001002 0 100-13.18002005h-82.81549302c.05582126-9.99975874 8.20417483-18.11865108 18.2147877-18.11865108h396.951192c10.04627646 0 18.21943948 8.17316302 18.21943948 18.21943947v9.30354356z"/>
  <path d="M125.78226417 612.1878106c-.7975199 1.47792148-2.04817608 2.21688222-3.7547571 2.21688222-1.02339091 0-2.1889969-.3680861-3.49681798-1.1084411a87.0621232 87.0621232 0 00-4.77814801-2.47342708c-1.87668142-.96622602-4.0949579-1.81951653-6.65343517-2.55847726-2.61564215-.7975199-5.6886034-1.19488557-9.2133067-1.19488557-3.07156698 0-5.8587038.39736568-8.36001618 1.19488557-2.44554176.73896073-4.52160315 1.79023695-6.22818417 3.15522292-1.76235165 1.36638023-3.0994523 2.9572372-4.0099077 4.778148a12.97921792 12.97921792 0 00-1.36498596 5.88658912c0 2.67280704.76824031 4.89108352 2.30332667 6.65343516 1.53648063 1.7637459 3.55537713 3.29883227 6.05808378 4.60665335 2.50131238 1.30782108 5.3734994 2.44554176 8.61656104 3.41316205 3.1845025 1.0233909 6.48333477 2.1039467 9.89510255 3.24027312a112.22025062 112.22025062 0 019.81005235 3.6697069c3.24166738 1.36498597 6.1138544 3.07017272 8.61656104 5.11695454 2.55987154 2.04957034 4.60665335 4.57876803 6.14173971 7.59317013 1.53648063 2.95723722 2.30332668 6.51122008 2.30332668 10.66334286 0 4.778148-.85329052 9.18542139-2.55847727 13.2232144a28.58941492 28.58941492 0 01-7.59317014 10.57829266c-3.3546029 2.9572372-7.44956079 5.28984346-12.28347942 6.99642448-4.8353129 1.70518676-10.43747184 2.55847727-16.80647683 2.55847727-7.2222955 0-13.76279516-1.165606-19.62149896-3.49821224-5.91447443-2.38837687-10.91988772-5.40277897-15.01345135-9.04181204l4.35010849-6.99642448c.51169545-.90906113 1.16560599-1.59225125 1.96173161-2.04678182.73896074-.45453056 1.70658102-.68319011 2.90007233-.68319011 1.25205045 0 2.55987153.45592483 3.9248575 1.36638023a95.41377378 95.41377378 0 004.9482484 3.24166738c1.9338463 1.13632642 4.29433787 2.1889969 7.08008042 3.15522292 2.78853108.96762029 6.25606948 1.45003617 10.40819227 1.45003617 3.52609755 0 6.62554985-.48241588 9.29975116-1.45003617 2.67141277-.90906113 4.88968925-2.13322628 6.65343516-3.66691837 1.76235164-1.59364551 3.07017272-3.41316205 3.92346323-5.45994386.85329051-2.04817608 1.27993577-4.23856725 1.27993577-6.56977923 0-2.8443017-.76684605-5.203399-2.30332667-7.08008042-1.53508637-1.87668142-3.55537713-3.49821224-6.05668952-4.8631982-2.55987153-1.30782108-5.45994386-2.44554177-8.70161124-3.4117678-3.24166738-1.0233909-6.54049965-2.07606138-9.89649681-3.15661717a104.01220938 104.01220938 0 01-9.89510255-3.75336284c-3.24166738-1.36638023-6.14313397-3.12873187-8.70161124-5.28984346-2.50270665-2.1039467-4.52160315-4.69170355-6.05668951-7.76327054-1.53648063-3.1273376-2.30332668-6.90998002-2.30332668-11.3451387 0-3.9820224.82401094-7.79255012 2.47342707-11.43297744 1.59225125-3.63903307 3.98062813-6.85281514 7.16652489-9.6385577 3.1273376-2.72997192 6.96575064-4.9203631 11.51663337-6.56838496 4.60665335-1.64941613 9.83793766-2.47482133 15.69664146-2.47482133 6.82492983 0 12.93878422 1.0805558 18.3415632 3.24166738 5.45994386 2.1611116 10.15025314 5.1183488 14.07511064 8.8731059l-4.09356363 6.65343517zm70.51358548-18.76681418c6.25606948 0 12.00044351 1.05127622 17.23312209 3.15522292 5.23128431 2.04817608 9.78077277 5.0332986 13.64985965 8.9581561 3.80913346 3.92346324 6.79565025 8.78666145 8.95676184 14.5868061 2.1039467 5.74437403 3.15661718 12.312759 3.15661718 19.70654916 0 2.8443017-.28443017 4.74886843-.85329051 5.71648872-.62602523.96622602-1.79163122 1.45003616-3.49821224 1.45003616h-69.0161443c.11432978 6.53910539.99689987 12.2277088 2.646316 17.06162743 1.64941614 4.83391863 3.89557792 8.87171164 6.73848536 12.11337902 2.90007233 3.24166739 6.31323437 5.6886034 10.23809187 7.33662528 3.98062812 1.59225125 8.41718107 2.38837687 13.3082646 2.38837687 4.60665334 0 8.55939615-.53958076 11.85683416-1.62013656 3.29883227-1.0233909 6.14313397-2.1611116 8.53151084-3.41316204 2.38837688-1.2506562 4.3779938-2.38837687 5.97163932-3.41176778 1.64941613-1.0805558 3.0422874-1.62013656 4.18000809-1.62013656 1.47792147 0 2.64492173.59674565 3.49821224 1.79023696l5.11695454 6.65482942c-2.27265283 2.72997193-4.97473945 5.08906923-8.10347133 7.08008042a51.71330893 51.71330893 0 01-10.0665972 4.9482484 61.14272678 61.14272678 0 01-11.08998812 2.90007233c-3.86769261.68319012-7.67822034 1.02478518-11.43158317 1.02478518-7.16652488 0-13.76279516-1.22277088-19.79159936-3.66831264-6.0288042-2.38977114-11.2322032-5.943754-15.61159127-10.66473713-4.43655295-4.66242397-7.8776003-10.43607757-10.3217478-17.31677802-2.44554176-6.88209471-3.66831264-14.78758033-3.66831264-23.71645686 0-7.2794604 1.1084411-14.04722532 3.32671758-20.3032948 2.21688221-6.2560695 5.40277898-11.68812804 9.55490176-16.29338712 4.15072851-4.60804762 9.241192-8.24708068 15.2699962-10.91988772 5.97163932-2.61703642 12.71151895-3.9248575 20.21824462-3.9248575m.42664526 13.39331479c-8.81594102 0-15.72592104 2.55987153-20.72994007 7.67822033-5.06118392 5.06118392-8.2178011 12.11337903-9.46985156 21.15658533h56.38967555c0-4.26645256-.56886034-8.16063622-1.70658102-11.68673377-1.13772068-3.47032693-2.8443017-6.48333477-5.11695454-9.0432063-2.27683563-2.55987153-5.0332986-4.54948846-8.27636025-5.97163931-3.24166738-1.42215086-6.93786533-2.13322628-11.08998811-2.13322628zm50.10711502-11.77178397h14.92979541c1.42215086 0 2.61564216.39736568 3.58326244 1.1934913.96622602.73896074 1.64941614 1.62153083 2.04678182 2.64492174l26.27493412 66.71142335a50.77217968 50.77217968 0 012.30332668 7.42167548c.51169545 2.44554176 1.02478517 4.8631982 1.53648062 7.25157508.51169546-2.38837688 1.0805558-4.80603332 1.70518676-7.25018082a59.27719949 59.27719949 0 012.38977114-7.42306974l26.61652918-66.71142335a6.24212683 6.24212683 0 011.96173162-2.72997193c.90906113-.73896074 2.04678181-1.1084411 3.41176778-1.1084411h14.2466053l-42.31317065 103.73475053h-16.4634875l-42.22812046-103.73475054zm156.24976214-1.62153082c6.25606949 0 12.00044352 1.05267048 17.2331221 3.15661718 5.2312843 2.04817608 9.78216703 5.0332986 13.64985964 8.9581561 3.80913346 3.92346324 6.79565025 8.78666145 8.95676184 14.5868061 2.10534097 5.74437403 3.15661719 12.312759 3.15661719 19.70654916 0 2.8443017-.28443018 4.74886843-.85329052 5.71648872-.62602522.96622602-1.79163122 1.45003616-3.49821224 1.45003616h-69.01475003c.11432978 6.53910539.9955056 12.2277088 2.64492174 17.06162743 1.64941613 4.83391863 3.89557792 8.87171164 6.73848536 12.11337902 2.90007232 3.24166739 6.31323437 5.6886034 10.23809187 7.33662528 3.98062812 1.59225125 8.41718107 2.38837687 13.30826459 2.38837687 4.60665335 0 8.55939616-.53958076 11.85822843-1.62013656 3.297438-1.0233909 6.1417397-2.1611116 8.53011658-3.41316204 2.38837687-1.2506562 4.3779938-2.38837687 5.97163931-3.41176778 1.64941614-1.0805558 3.04228741-1.62013656 4.1800081-1.62013656 1.47792147 0 2.64492173.59674565 3.49821224 1.79023696l5.11695453 6.65482942c-2.27265283 2.72997193-4.97473945 5.08906923-8.10347132 7.08008042a51.71330893 51.71330893 0 01-10.06659721 4.9482484 61.14133252 61.14133252 0 01-11.08998812 2.90007233c-3.8676926.68319012-7.67682607 1.02478518-11.43158317 1.02478518-7.16652488 0-13.7614009-1.22277088-19.79159936-3.66831264-6.02740993-2.38977114-11.2322032-5.943754-15.61159126-10.66473713-4.43515869-4.66242397-7.87760031-10.43607757-10.3217478-17.31677802-2.44554176-6.88209471-3.66831264-14.78758033-3.66831264-23.71645686 0-7.2794604 1.1084411-14.04722532 3.32671758-20.3032948 2.2168822-6.2560695 5.40277897-11.68812804 9.55490175-16.29338712 4.15212278-4.60804762 9.24119201-8.24708068 15.26999621-10.91988772 5.97163931-2.61703642 12.71151894-3.9248575 20.21824461-3.9248575m.42664526 13.39331479c-8.81454675 0-15.72452677 2.55987153-20.72994007 7.67822033-5.06118391 5.06118392-8.2178011 12.11337903-9.46985155 21.15658533h56.38967555c0-4.26645256-.56886034-8.16063622-1.70658103-11.68673377-1.13632641-3.47032693-2.8443017-6.48333477-5.11695453-9.0432063-2.27544137-2.55987153-5.0332986-4.54948846-8.27636026-5.97163931-3.24166738-1.42215086-6.93786533-2.13322628-11.08998811-2.13322628zm65.82188194 91.96296657V595.04113298h10.49324246c1.9338463 0 3.29883227.39736568 4.0949579 1.1934913.73896073.73896074 1.25065619 2.0188965 1.53508636 3.8398073l1.19488556 16.20833692c3.52609756-7.2222955 7.90548562-12.8830136 13.13676993-16.97657723 5.23267858-4.037793 11.37441829-6.0566895 18.4266134-6.0566895 2.8443017 0 5.43205855.31231547 7.76327053.9383407a28.169741 28.169741 0 016.39967884 2.72997193l-2.30472094 13.64985965c-.51169546 1.70518676-1.56436594 2.55847727-3.15661719 2.55847727-.96622602 0-2.44554176-.34159506-4.43515869-1.0233909-1.99101119-.62602524-4.74886843-.93834072-8.27496598-.93834072-6.37039926 0-11.68812804 1.84740184-15.95318633 5.54499406-4.26645255 3.63903306-7.82043542 8.9860414-10.66334286 16.03823652v66.02823324h-18.256513zm102.813141-150.8260692v150.8260692h-18.25651299v-150.8260692h18.25511873zm73.14177604 45.46978784c6.25606948 0 12.00044351 1.05267048 17.23312209 3.15661718 5.2312843 2.04817608 9.78077277 5.0332986 13.64985965 8.9581561 3.80913346 3.92346324 6.79565024 8.78666145 8.95676183 14.5868061 2.1039467 5.74437403 3.15661719 12.312759 3.15661719 19.70654916 0 2.8443017-.28443017 4.74886843-.85329051 5.71648872-.62602523.96622602-1.79163122 1.45003616-3.49821225 1.45003616h-69.01614429c.11432978 6.53910539.99689986 12.2277088 2.646316 17.06162743 1.64941614 4.83391863 3.89557792 8.87171164 6.73848536 12.11337902 2.90007233 3.24166739 6.31323437 5.6886034 10.23809187 7.33662528 3.98062812 1.59225125 8.41718107 2.38837687 13.3082646 2.38837687 4.60665334 0 8.55800188-.53958076 11.85683415-1.62013656 3.29883228-1.0233909 6.14313398-2.1611116 8.53151085-3.41316204 2.38837687-1.2506562 4.3779938-2.38837687 5.97163931-3.41176778 1.64941614-1.0805558 3.04228742-1.62013656 4.1800081-1.62013656 1.47792147 0 2.64492173.59674565 3.49821224 1.79023696l5.11695454 6.65482942c-2.27265284 2.72997193-4.97473945 5.08906923-8.10347133 7.08008042a51.71330893 51.71330893 0 01-10.0665972 4.9482484 61.14133252 61.14133252 0 01-11.08998812 2.90007233c-3.86769261.68319012-7.67822034 1.02478518-11.43158317 1.02478518-7.16652489 0-13.76279516-1.22277088-19.79159936-3.66831264-6.0288042-2.38977114-11.2322032-5.943754-15.61159127-10.66473713-4.43655295-4.66242397-7.8776003-10.43607757-10.3217478-17.31677802-2.44554176-6.88209471-3.66831264-14.78758033-3.66831264-23.71645686 0-7.2794604 1.1084411-14.04722532 3.32671758-20.3032948 2.21688221-6.2560695 5.40277897-11.68812804 9.55490176-16.29338712 4.15072851-4.60804762 9.241192-8.24708068 15.2699962-10.91988772 5.97163932-2.61703642 12.71151894-3.9248575 20.21824462-3.9248575m.42664525 13.39331479c-8.81594101 0-15.72592104 2.55987153-20.72994006 7.67822033-5.06118392 5.06118392-8.2178011 12.11337903-9.46985156 21.15658533h56.38967555c0-4.26645256-.56886034-8.16063622-1.70658102-11.68673377-1.13772068-3.47032693-2.8443017-6.48333477-5.1183488-9.0432063-2.27544137-2.55987153-5.0332986-4.54948846-8.274966-5.97163931-3.24166737-1.42215086-6.93786532-2.13322628-11.0899881-2.13322628zm125.19668002 5.37489366c-.79612563 1.47792147-2.04678182 2.2168822-3.75336284 2.2168822-1.0233909 0-2.1889969-.3680861-3.49821224-1.1084411a87.05654613 87.05654613 0 00-4.77675375-2.47342707c-1.87668142-.96622602-4.0949579-1.81951653-6.65482943-2.55847726-2.61564215-.7975199-5.68720914-1.19488557-9.2133067-1.19488557-3.07017272 0-5.85730953.39736568-8.36001618 1.19488557-2.44554176.73896073-4.52160315 1.79023695-6.2267899 3.15522292-1.76374592 1.36638023-3.10084657 2.9572372-4.0099077 4.778148a12.97921792 12.97921792 0 00-1.36638023 5.88658912c0 2.67280704.7682403 4.89108352 2.30472094 6.65343516 1.53508636 1.7637459 3.55537713 3.29883227 6.0566895 4.60665335 2.50270665 1.30782108 5.37489367 2.44554176 8.61656105 3.41316205 3.1845025 1.0233909 6.48333477 2.1039467 9.89510255 3.24027312a112.21606782 112.21606782 0 019.81144661 3.6697069c3.24166739 1.36498597 6.1138544 3.07017272 8.61656105 5.11695454 2.55847727 2.04957034 4.60525908 4.57876803 6.1417397 7.59317013 1.53508637 2.95723722 2.30332668 6.51122008 2.30332668 10.66334286 0 4.778148-.85329051 9.18542139-2.55987153 13.2232144a28.58941492 28.58941492 0 01-7.59177588 10.57829266c-3.35599715 2.9572372-7.45095505 5.28984346-12.28487368 6.99642448-4.83391863 1.70518676-10.43607758 2.55847727-16.80647683 2.55847727-7.2222955 0-13.7614009-1.165606-19.6201047-3.49821224-5.9158687-2.38837687-10.91988772-5.40277897-15.01484561-9.04181204l4.35010848-6.99642448c.51308972-.90906113 1.16700026-1.59225125 1.96312589-2.04678182.73896073-.45453056 1.70518675-.68319011 2.90007232-.68319011 1.2506562 0 2.55987154.45592483 3.9248575 1.36638023a95.41237952 95.41237952 0 004.94685414 3.24166738c1.9338463 1.13632642 4.29433787 2.1889969 7.08147469 3.15522292 2.78713681.96762029 6.25606948 1.45003617 10.406798 1.45003617 3.52749181 0 6.62694411-.48241588 9.29975116-1.45003617 2.67280704-.90906113 4.89108351-2.13322628 6.65343516-3.66691837 1.7637459-1.59364551 3.07156699-3.41316205 3.9248575-5.45994386.8532905-2.04817608 1.2785415-4.23856725 1.2785415-6.56977923 0-2.8443017-.76684605-5.203399-2.30332668-7.08008042-1.5336921-1.87668142-3.55398286-3.49821224-6.0566895-4.8631982-2.55847728-1.30782108-5.45994387-2.44554177-8.70021698-3.4117678-3.24306165-1.0233909-6.54189392-2.07606138-9.89649682-3.15661717a104.01220938 104.01220938 0 01-9.8964968-3.75336284c-3.2416674-1.36638023-6.14173972-3.12873187-8.70021699-5.28984346-2.50270664-2.1039467-4.52299741-4.69170355-6.05808377-7.76327054-1.53508636-3.1273376-2.30332668-6.90998002-2.30332668-11.3451387 0-3.9820224.8254052-7.79255012 2.47482134-11.43297744 1.59225125-3.63903307 3.98062812-6.85281514 7.16652488-9.6385577 3.12733761-2.72997192 6.96575065-4.9203631 11.51663337-6.56838496 4.60525908-1.64941613 9.83793766-2.47482133 15.6952472-2.47482133 6.82492982 0 12.93878422 1.0805558 18.3415632 3.24166738 5.45994385 2.1611116 10.1516474 5.1183488 14.0765049 8.8731059l-4.0949579 6.65343517zm88.85654294 0c-.79751989 1.47792147-2.04957035 2.2168822-3.7547571 2.2168822-1.02339091 0-2.1889969-.3680861-3.49681798-1.1084411a87.05654613 87.05654613 0 00-4.77814801-2.47342707c-1.87668142-.96622602-4.0949579-1.81951653-6.65343516-2.55847726-2.61703642-.7975199-5.68860341-1.19488557-9.2133067-1.19488557-3.07156699 0-5.8587038.39736568-8.36141045 1.19488557-2.44554176.73896073-4.52020889 1.79023695-6.2267899 3.15522292-1.76374592 1.36638023-3.0994523 2.9572372-4.0099077 4.778148a12.97921792 12.97921792 0 00-1.36498597 5.88658912c0 2.67280704.76684605 4.89108352 2.30332667 6.65343516 1.53508637 1.7637459 3.55537713 3.29883227 6.05668952 4.60665335 2.50270664 1.30782108 5.37489366 2.44554176 8.61656104 3.41316205 3.1845025 1.0233909 6.48333477 2.1039467 9.89649681 3.24027312a112.21606782 112.21606782 0 019.81005235 3.6697069c3.24166738 1.36498597 6.1138544 3.07017272 8.61656105 5.11695454 2.55847726 2.04957034 4.60665334 4.57876803 6.1417397 7.59317013 1.53508637 2.95723722 2.30332668 6.51122008 2.30332668 10.66334286 0 4.778148-.85329051 9.18542139-2.55847727 13.2232144a28.58941492 28.58941492 0 01-7.59317014 10.57829266c-3.35599715 2.9572372-7.45095505 5.28984346-12.28347942 6.99642448-4.8353129 1.70518676-10.43747184 2.55847727-16.80647683 2.55847727-7.2222955 0-13.76418942-1.165606-19.62149896-3.49821224-5.91447443-2.38837687-10.91988772-5.40277897-15.01484562-9.04181204l4.3501085-6.99642448c.51308971-.90906113 1.16700025-1.59225125 1.96312588-2.04678182.73896073-.45453056 1.70658102-.68319011 2.90007232-.68319011 1.25205046 0 2.55987154.45592483 3.9248575 1.36638023a95.4054082 95.4054082 0 004.9482484 3.24166738c1.93384631 1.13632642 4.29433787 2.1889969 7.08008042 3.15522292 2.78713682.96762029 6.25606949 1.45003617 10.40819227 1.45003617 3.52609755 0 6.62554985-.48241588 9.2983569-1.45003617 2.67280704-.90906113 4.89108351-2.13322628 6.65343516-3.66691837 1.7637459-1.59364551 3.07156698-3.41316205 3.9248575-5.45994386.8532905-2.04817608 1.27993576-4.23856725 1.27993576-6.56977923 0-2.8443017-.76684604-5.203399-2.30332667-7.08008042-1.53648063-1.87668142-3.55537713-3.49821224-6.05668951-4.8631982-2.55987154-1.30782108-5.45994386-2.44554177-8.70161125-3.4117678-3.24166738-1.0233909-6.54049965-2.07606138-9.8964968-3.15661717a104.01220938 104.01220938 0 01-9.89510255-3.75336284c-3.24166739-1.36638023-6.14313398-3.12873187-8.70161125-5.28984346-2.50270664-2.1039467-4.52160315-4.69170355-6.05808377-7.76327054-1.5336921-3.1273376-2.30332668-6.90998002-2.30332668-11.3451387 0-3.9820224.8254052-7.79255012 2.47482134-11.43297744 1.59225125-3.63903307 3.98062812-6.85281514 7.16652488-9.6385577 3.1273376-2.72997192 6.96575064-4.9203631 11.51663337-6.56838496 4.60665335-1.64941613 9.83793766-2.47482133 15.69664146-2.47482133 6.82492983 0 12.93878423 1.0805558 18.3415632 3.24166738 5.4585496 2.1611116 10.15025314 5.1183488 14.07511064 8.8731059l-4.0949579 6.65343517zm88.85514868 0c-.79612563 1.47792147-2.04817608 2.2168822-3.7547571 2.2168822-1.02339091 0-2.1889969-.3680861-3.49681798-1.1084411a87.0621232 87.0621232 0 00-4.77814801-2.47342707c-1.87668142-.96622602-4.09356363-1.81951653-6.65343516-2.55847726-2.61564216-.7975199-5.68860341-1.19488557-9.2133067-1.19488557-3.07156699 0-5.85730954.39736568-8.36001619 1.19488557-2.44554176.73896073-4.52160315 1.79023695-6.22818417 3.15522292-1.76235164 1.36638023-3.0994523 2.9572372-4.0099077 4.778148a12.97921792 12.97921792 0 00-1.36498596 5.88658912c0 2.67280704.76824031 4.89108352 2.30332667 6.65343516 1.53648063 1.7637459 3.55537713 3.29883227 6.05808378 4.60665335 2.50131238 1.30782108 5.3734994 2.44554176 8.61656105 3.41316205 3.1845025 1.0233909 6.48333476 2.1039467 9.89510254 3.24027312a112.22025062 112.22025062 0 019.81005235 3.6697069c3.24166738 1.36498597 6.1138544 3.07017272 8.61656104 5.11695454 2.55987154 2.04957034 4.60665335 4.57876803 6.14173971 7.59317013 1.53648063 2.95723722 2.30332668 6.51122008 2.30332668 10.66334286 0 4.778148-.85189625 9.18542139-2.55847727 13.2232144a28.58941492 28.58941492 0 01-7.59317014 10.57829266c-3.35460289 2.9572372-7.44956078 5.28984346-12.28347942 6.99642448-4.8353129 1.70518676-10.43607757 2.55847727-16.80647683 2.55847727-7.2222955 0-13.76279516-1.165606-19.62149896-3.49821224-5.91447443-2.38837687-10.91849346-5.40277897-15.01345135-9.04181204l4.35010849-6.99642448c.51169545-.90906113 1.16560599-1.59225125 1.96173161-2.04678182.73896074-.45453056 1.70658103-.68319011 2.90007233-.68319011 1.25205046 0 2.55987153.45592483 3.9248575 1.36638023a95.41377378 95.41377378 0 004.9482484 3.24166738c1.93384631 1.13632642 4.29433787 2.1889969 7.08008042 3.15522292 2.78853109.96762029 6.25606949 1.45003617 10.40819227 1.45003617 3.52749182 0 6.62554985-.48241588 9.29975116-1.45003617 2.67141278-.90906113 4.88968925-2.13322628 6.65343516-3.66691837 1.76235165-1.59364551 3.07017272-3.41316205 3.92346323-5.45994386.85329052-2.04817608 1.27993577-4.23856725 1.27993577-6.56977923 0-2.8443017-.76684605-5.203399-2.30332667-7.08008042-1.53508636-1.87668142-3.55537713-3.49821224-6.05668951-4.8631982-2.55987154-1.30782108-5.45994386-2.44554177-8.70161125-3.4117678-3.24166738-1.0233909-6.53910539-2.07606138-9.8964968-3.15661717a104.01220938 104.01220938 0 01-9.89510255-3.75336284c-3.24166739-1.36638023-6.14173971-3.12873187-8.70161125-5.28984346-2.50270664-2.1039467-4.52160315-4.69170355-6.0566895-7.76327054-1.53648064-3.1273376-2.30332668-6.90998002-2.30332668-11.3451387 0-3.9820224.82401093-7.79255012 2.47342707-11.43297744 1.59225125-3.63903307 3.98062812-6.85281514 7.16652488-9.6385577 3.1273376-2.72997192 6.9671449-4.9203631 11.51663337-6.56838496 4.60665335-1.64941613 9.83933192-2.47482133 15.69664146-2.47482133 6.82492983 0 12.93878423 1.0805558 18.3415632 3.24166738 5.45994386 2.1611116 10.1516474 5.1183488 14.0765049 8.8731059l-4.0949579 6.65343517zm105.66162551 86.5880729h-8.10486559c-1.7637459 0-3.1845025-.2830359-4.26645256-.85189624-1.07916152-.51308972-1.79023695-1.64941613-2.131832-3.41316204l-2.04678182-9.63995195a110.5582861 110.5582861 0 01-8.0198154 6.56977923 50.61183915 50.61183915 0 01-8.18991579 4.94685414 42.93919587 42.93919587 0 01-9.1282565 2.98651679c-3.24166738.6831901-6.85281513 1.0233909-10.83344325 1.0233909-4.037793 0-7.82043542-.56886034-11.34653297-1.70658102-3.46893267-1.0805558-6.51122008-2.75785724-9.1282565-5.0332986-2.61564216-2.2740471-4.69170355-5.11695454-6.22678991-8.5301166-1.53648063-3.46893265-2.30332667-7.56389055-2.30332667-12.28487367 0-4.0949579 1.13632641-8.01842113 3.41176777-11.77317823 2.27544137-3.81052772 5.91447443-7.16652488 10.91988772-10.0665972 5.0054133-2.95584295 11.572404-5.3734994 19.70654916-7.25018082 8.1327509-1.87668142 18.05573876-2.95723721 29.77314637-3.2416674v-8.10486558c0-8.01842112-1.7358606-14.10439021-5.20479326-18.256513-3.41176778-4.0949579-8.50223127-6.1417397-15.26999621-6.1417397-4.43655295 0-8.16063621.53958076-11.17503831 1.62013656-3.071567 1.13772068-5.71648872 2.41765644-7.93337093 3.8398073a101.23901522 101.23901522 0 00-5.71648872 3.75336283c-1.59225125 1.13772069-3.1845025 1.70658103-4.77675375 1.70658103a5.84057835 5.84057835 0 01-3.24166738-.93834071 7.3882131 7.3882131 0 01-2.13322628-2.47482134l-3.32671758-5.80014465c5.74437403-5.51710875 11.91399905-9.63995195 18.51166359-12.36992388 6.65343516-2.72997193 13.99006044-4.0949579 22.00987583-4.0949579 5.80014466 0 10.97565835.9383407 15.52654107 2.81502213 4.49232358 1.9338463 8.27496599 4.60665335 11.34513871 8.01842113 3.07156699 3.41316204 5.37489366 7.53600525 6.90998002 12.36992388 1.59225125 4.83391863 2.38977114 10.1516474 2.38977114 15.95318632v66.3698283m-47.26141905-11.17503831c3.1845025 0 6.1138544-.3123155 8.78666144-.93834071a35.86050972 35.86050972 0 007.50672567-2.81502213 41.14059333 41.14059333 0 006.73987963-4.3501085 59.51701316 59.51701316 0 006.31323437-5.8015389v-21.5832306c-8.41718107.28443018-15.55582064.93834072-21.41313018 1.96173163-5.85730954 1.0805558-10.63545755 2.47342707-14.33304976 4.1800081-3.69480369 1.70658102-6.369005 3.72547752-8.01702687 6.0566895-1.6508104 2.27544137-2.47482133 4.8631982-2.47482133 7.76327054 0 2.72997193.42664525 5.09046349 1.27993576 7.08147468.90906114 1.9338463 2.1039467 3.55537713 3.58326245 4.86180394 1.5336921 1.25205046 3.32671758 2.1611116 5.3734994 2.72997193 2.04817607.56886034 4.26645255.85329052 6.65482942.85329052zm95.18511424-139.64963662v150.82467493h-18.256513v-150.8260692h18.256513zm108.28981605 150.82467493h-8.10486559c-1.76235164 0-3.1845025-.2830359-4.26645255-.85189625-1.07916153-.51308972-1.79023696-1.64941613-2.13183202-3.41316204l-2.04678181-9.63995195a110.56525742 110.56525742 0 01-8.0198154 6.56977923 50.61183915 50.61183915 0 01-8.18852152 4.94685414 42.9378016 42.9378016 0 01-9.1282565 2.98651679c-3.24166738.6831901-6.8542094 1.0233909-10.83344325 1.0233909-4.03918727 0-7.82182969-.56886034-11.34792724-1.70658102-3.46893267-1.0805558-6.51122008-2.75785724-9.12686224-5.0332986-2.61703642-2.2740471-4.6930978-5.11695454-6.22818417-8.5301166-1.53508636-3.46893265-2.30332667-7.56389055-2.30332667-12.28487367 0-4.0949579 1.13772068-8.01842113 3.41176778-11.77317823 2.27544136-3.81052772 5.91586869-7.16652488 10.91988772-10.0665972 5.00541329-2.95584295 11.57379825-5.3734994 19.70654916-7.25018082s18.05713302-2.95723721 29.77314636-3.2416674v-8.10486558c0-8.01842112-1.73446633-14.10439021-5.203399-18.256513-3.41316204-4.0949579-8.50362553-6.1417397-15.27139047-6.1417397-4.43515869 0-8.16063621.53958076-11.17503831 1.62013656-3.07156699 1.13772068-5.71648872 2.41765644-7.93337093 3.8398073a101.23901522 101.23901522 0 00-5.71648872 3.75336283c-1.59225125 1.13772069-3.1845025 1.70658103-4.77675375 1.70658103a5.84057835 5.84057835 0 01-3.24166738-.93834071 7.3882131 7.3882131 0 01-2.13322628-2.47482134l-3.32671758-5.80014465c5.74437403-5.51710875 11.91539332-9.63995195 18.5116636-12.36992388 6.65482942-2.72997193 13.9914547-4.0949579 22.00987583-4.0949579 5.80014465 0 10.9770526.9383407 15.52654106 2.81502213 4.49232358 1.9338463 8.274966 4.60665335 11.34653298 8.01842113 3.07017272 3.41316204 5.3734994 7.53600525 6.90998002 12.36992388 1.59225125 4.83391863 2.38837687 10.1516474 2.38837687 15.95318632v66.3698283m-47.26141905-11.17503831c3.1845025 0 6.1138544-.3123155 8.78666144-.93834071a35.86190399 35.86190399 0 007.50672568-2.81502213 41.1378048 41.1378048 0 006.73987962-4.3501085 59.52119596 59.52119596 0 006.31323437-5.8015389v-21.5832306c-8.41718107.28443018-15.55442637.93834072-21.41313018 1.96173163-5.85730954 1.0805558-10.63545755 2.47342707-14.3316555 4.1800081-3.69619795 1.70658102-6.36900499 3.72547752-8.01842112 6.0566895-1.64941614 2.27544137-2.47482134 4.8631982-2.47482134 7.76327054 0 2.72997193.42664526 5.09046349 1.27993577 7.08147468.9104554 1.9338463 2.10534096 3.55537713 3.58326244 4.86180394 1.53508636 1.25205046 3.32671758 2.1611116 5.37489366 2.72997193 2.04678181.56886034 4.26505829.85329052 6.65343516.85329052zm74.88181943 11.1750383V547.94981434h18.256513v61.08277336c4.43515868-4.72098312 9.35552178-8.50362554 14.75830075-11.34792724 5.34561408-2.84290744 11.54451868-4.2650583 18.59671379-4.2650583 5.6886034 0 10.69262243.93834072 15.01484561 2.8164164 4.32222318 1.87528716 7.93337093 4.54948846 10.83344326 8.01702686 2.90007232 3.41316205 5.09046349 7.56528483 6.56977923 12.45636835 1.53508636 4.83391863 2.30332667 10.17953272 2.30332667 16.03823652v66.02823324h-18.256513v-66.02683897c0-7.849715-1.79163122-13.93428982-5.37489366-18.256513-3.58326244-4.32222318-9.04181203-6.48333477-16.37843731-6.48333477-5.40277897 0-10.43607758 1.27993577-15.09989581 3.83841304-4.72098313 2.61703642-9.0432063 6.14313397-12.96666954 10.57829266v76.3513753h-18.256513z" style="white-space:pre" fill="#eeeae3" color="#bfc8e0" stroke="#2d2c4d" stroke-width="5.57708"/>
</svg>