<svg xmlns="http://www.w3.org/2000/svg" id="master-artboard" x="0" y="0" version="1.1" viewBox="0 0 1400 980">
  <defs/>
  <g transform="matrix(1 0 0 1 12.01741342 -15.03832828)">
    <defs/>
    <path fill="none" d="M6.51121063 52.98553615H1406.5099718v880.765908H6.51121063z" pointer-events="none" transform="translate(.00000194 3.57375038)"/>
    <path fill="none" d="M6.56123688-136.58873401h1371.71616006v1371.71616006H6.56123688V-136.58873401z" transform="translate(.00000194 3.57375038)"/>
    <path fill="#5f4b8b" d="M1359.61186879 639.88816336a247.61848711 248.30436654 0 01-247.61581832 248.30436655 247.61848711 248.30436654 0 01-247.61848711-248.30436655 247.61848711 248.30436654 0 01247.6184871-248.30436654 247.61848711 248.30436654 0 01247.61848712 248.30436654z" transform="translate(.00000194 3.57375038)"/>
    <path fill="#5f4b8b" d="M1344.47982066 702.47933177A646.56012434 202.22234271 0 01697.9223651 904.70167448 646.56012434 202.22234271 0 0151.36224076 702.47933177a646.56012434 202.22234271 0 01646.56012435-202.21967392 646.56012434 202.22234271 0 01646.55745555 202.21967392z" transform="translate(.00000194 3.57375038)"/>
    <path fill="#5f4b8b" d="M527.3412151 645.39121156A247.61848711 248.30436654 0 01279.722728 893.6955781 247.61848711 248.30436654 0 0132.1015721 645.39388035a247.61848711 248.30436654 0 01247.6184871-248.30703533 247.61848711 248.30436654 0 01247.61848711 248.30436654z" transform="translate(.00000194 3.57375038)"/>
    <path fill="#5f4b8b" d="M865.75199101 431.47689303a334.28482416 360.42029989 0 01-334.28482416 360.42029989A334.28482416 360.42029989 0 01197.1823427 431.47689303 334.28482416 360.42029989 0 01531.46716685 71.05392435a334.28482416 360.42029989 0 01334.28482416 360.42029989z" transform="translate(.00000194 3.57375038)"/>
    <path fill="#5f4b8b" d="M1078.9804301 442.48032062a224.23186669 202.22234271 0 01-224.23186668 202.22234271 224.23186669 202.22234271 0 01-224.2318667-202.2223427 224.23186669 202.22234271 0 01224.2318667-202.22234272 224.23186669 202.22234271 0 01224.23186669 202.22234271z" transform="translate(.00000194 3.57375038)"/>
    <path d="M1106.08200838 377.69807435h-21.22223047c-10.63246557-92.83124555-89.842199-165.16617193-185.61979043-165.16617193-28.99375149 0-49.83167597 5.89269176-66.86924127 13.7496141-68.96157386-104.3177244-188.30993232-170.71725837-309.53712005-170.71725837-194.4161274 0-346.85750119 151.37385716-348.13852113 345.10677393C76.52627636 440.29724913 9.23002844 539.32009109 9.23002844 646.84036538c0 148.42751127 120.92828307 269.18499168 269.526597 269.18499168h827.32538294c148.59831394 0 269.526597-120.7574804 269.526597-269.18499169 0-153.42348907-115.8896046-269.14229102-269.526597-269.14229102zm.04270066 495.66931845h-827.3680836c-125.07024756-.04270066-226.82593207-101.62758252-226.82593207-226.52702743 0-94.62467347 62.04406613-181.43512526 150.86144918-210.9839854l14.6036274-4.8678758v-27.7554322c0-170.97346236 134.20818986-304.92544823 305.43785621-304.92544823 111.23523213 0 225.16060615 67.12544526 283.5324151 167.00230053l10.88866956 18.66019057 18.53208858-11.10217288c18.1477826-10.8459689 35.09994657-17.59267395 63.49588874-17.59267395 79.46593743 0 144.11474413 64.5207047 144.11474413 143.81583947v21.35033246h62.72727677c129.2976134 0 226.82593209 97.31481536 226.82593209 226.4416261 0 124.8994449-101.75568452 226.48432676-226.82593209 226.48432676z" transform="translate(.00000194 3.57375038)"/>
    <path fill="none" d="M1078.9804301 442.48032062a224.23186669 202.22234271 0 01-224.23186668 202.22234271 224.23186669 202.22234271 0 01-224.2318667-202.2223427 224.23186669 202.22234271 0 01224.2318667-202.22234272 224.23186669 202.22234271 0 01224.23186669 202.22234271z" transform="translate(.00000194 3.57375038)"/>
    <path fill="none" d="M128.74909186 99.87451899h772.96941098v772.96941098H128.74909186V99.87451899z" transform="translate(.00000194 3.57375038)"/>
    <path fill="#9a716e" d="M516.99526826 261.39488937V196.6546309l-72.98940043 64.74025847h72.98940043z" transform="matrix(1.00868 0 0 1.00868 2.04840235 10.24057456)"/>
    <path fill="#9a716e" d="M669.6354063 384.60481795a151.7733579 128.77654881 0 01-151.7733579 128.7780994 151.7733579 128.77654881 0 01-151.7733579-128.77654881 151.7733579 128.77654881 0 01151.77180731-128.77965 151.7733579 128.77654881 0 01151.7749085 128.7780994z" transform="matrix(1.00868 0 0 1.00868 2.04840235 10.24057456)"/>
    <path fill="#9a716e" d="M363.54572192 469.52136122h309.44361184V774.2465259H363.54572192V469.52136122z" transform="matrix(1.00868 0 0 1.00868 2.04840235 10.24057456)"/>
    <path fill="#77353d" d="M640.13852144 603.78545014c0 18.990083-15.5446707 34.38279583-34.72082457 34.38279583m34.72082457-34.38279583c0 18.990083-15.5446707 34.38279583-34.72082457 34.38279583-19.17460328 0-34.71927398-15.39271282-34.71927398-34.38279583m0 0c0-18.9885324 15.5446707-34.38124523 34.71927398-34.38124523 19.17615387 0 34.72082457 15.39271282 34.72082457 34.38124523v137.5311833c0 18.98853242-15.5446707 34.38279583-34.72082457 34.38279583-19.17460328 0-34.71927398-15.39426341-34.71927398-34.38279582v-137.5311833zm-106.69613876-.03876476c0 18.990083-15.5462213 34.38279582-34.72082458 34.38279582m34.71927399-34.38279582c0 18.990083-15.5446707 34.38279582-34.7177234 34.38279582-19.17615387 0-34.72082457-15.39271282-34.72082457-34.38279582m0 0c0-18.98853241 15.5446707-34.38124524 34.71927398-34.38124524 19.17460329 0 34.71927399 15.39271283 34.71927399 34.38124524v137.5311833c0 18.98853241-15.5446707 34.38279583-34.7177234 34.38279583-19.17615387 0-34.72082457-15.39426342-34.72082457-34.38279583v-137.5311833z" transform="matrix(1.00868 0 0 1.00868 2.04840235 10.24057456)"/>
    <path fill="#9a716e" d="M739.74846119 777.70124173c0 6.04420213-98.85015035 10.9440684-220.78859465 10.9440684m220.78859465-10.9440684c0 6.04420213-98.85015035 10.9440684-220.78859465 10.9440684-121.93999488 0-220.79169582-4.89986627-220.79169582-10.9440684m0 0c0-6.04420214 98.85015035-10.94406841 220.79014523-10.94406841 121.9384443 0 220.79014524 4.89986627 220.79014524 10.9440684v43.77627365c0 6.04420214-98.85015035 10.94406841-220.78859465 10.94406841-121.93999488 0-220.79169582-4.89986627-220.79169582-10.9440684v-43.77627365zM734.3555071 416.34695799c0 6.04420213-97.19101841 10.94406841-217.08268312 10.94406841M734.3555071 416.346958c0 6.04420212-97.19101841 10.9440684-217.08268312 10.9440684s-217.08268313-4.89986628-217.08268313-10.9440684m0 0c0-6.04420214 97.19101842-10.94406842 217.08268313-10.94406842s217.08268312 4.89986628 217.08268312 10.94406841v43.77627364c0 6.04420214-97.19101841 10.94406841-217.08268312 10.94406841s-217.08268313-4.89986627-217.08268313-10.9440684v-43.77627365z" transform="matrix(1.00868 0 0 1.00868 2.04840235 10.24057456)"/>
    <path fill="#77353d" d="M552.9906783 543.52174672c0 25.93983004-16.29670714 46.96738908-36.40476596 46.96738908m36.40631656-46.96738908c0 25.93983004-16.29980833 46.96738908-36.40631656 46.96738908-20.10495763 0-36.40476596-21.02755904-36.40476596-46.96738908m0 0c0-25.93983005 16.29980833-46.96738909 36.40476596-46.96738909 20.10650823 0 36.40631656 21.02755904 36.40631656 46.96738909v187.86955634c0 25.93827945-16.29980833 46.96738908-36.40631656 46.96738908-20.10495763 0-36.40476596-21.02910963-36.40476596-46.96738908V543.52174672z" transform="matrix(1.00868 0 0 1.00868 2.04840235 10.24057456)"/>
    <path fill="#9a716e" d="M365.56769206 830.87719555H668.9438429v35.05575214H365.56769206v-35.05575214zM540.17814823 170.5271794a21.23688877 20.56083127 0 01-21.23688877 20.56238186 21.23688877 20.56083127 0 01-21.23533818-20.56083128 21.23688877 20.56083127 0 0121.23533818-20.56393245 21.23688877 20.56083127 0 0121.23688877 20.56238186zm-25.65762256 89.4613243v-63.4672236l74.87026682 63.465673h-74.86871623z" transform="matrix(1.00868 0 0 1.00868 2.04840235 10.24057456)"/>
    <path d="M715.52668552 402.23968477h-39.44082234c-2.26231168-58.52239019-35.88996988-109.0778459-84.41415192-135.09675607-2.969381-29.41160238-39.28731388-57.16717401-58.9829156-70.1766291 8.50964118-5.26425506 14.2111628-14.65618229 14.2111628-25.37696565 0-14.19100511-9.96564575-26.0793832-23.25885891-29.09218072V108.0151196a6.59001002 6.59001002 0 10-13.18002005 0v34.48203362c-13.29321316 3.01124693-23.2588589 14.89962501-23.2588589 29.09218072 0 10.72078336 5.7015216 20.1127106 14.21116278 25.37696566-19.6987029 13.01255626-56.02748992 40.77433025-58.98446618 70.19368558-48.48696787 26.02356194-82.10067076 76.56506234-84.40794956 135.08125017h-39.44547412c-17.31389457 0-31.39945952 14.08556495-31.39945952 31.39945952v9.30354357c0 17.31389456 14.08556495 31.39945952 31.39945952 31.39945952h36.8265266V765.0778837h-36.8265266c-17.31389457 0-31.39945952 14.08556496-31.39945952 31.39945953v9.30354356c0 17.31389457 14.08556495 31.39945952 31.39945952 31.39945952h36.8265266v27.52298304a6.59001002 6.59001002 0 006.59001003 6.59001003H672.1101489a6.59001002 6.59001002 0 006.59001002-6.59001003v-27.52298304h36.8265266c17.31389457 0 31.39945953-14.08556495 31.39945953-31.39945952v-9.30354356c0-17.31389457-14.08556496-31.39945953-31.39945953-31.39945953h-36.8265266V474.34214738h36.8265266c17.31389457 0 31.39945953-14.08556496 31.39945953-31.39945953v-9.30354356c0-17.31389457-14.08556496-31.39945952-31.39945953-31.39945952zm-198.475596-247.3191997c9.19190104 0 16.66884889 7.47694784 16.66884889 16.66884888s-7.47694785 16.66884888-16.66884889 16.66884888-16.66884888-7.47694784-16.66884888-16.66884888 7.47849843-16.66884888 16.66884888-16.66884888zm0 47.73648202c17.10146366 10.18117783 50.54770277 34.14710605 59.41397978 57.34394133a157.47643011 157.47643011 0 00-59.41397978-11.58136114c-20.99499664 0-41.05033538 4.12302039-59.41863155 11.59221528 8.86007465-23.19993647 42.31406671-47.17206705 59.41863155-57.35479547zm0 58.94260024c38.33680184 0 73.26230438 14.95699686 99.3385864 39.37104576h-26.22048695a6.59001002 6.59001002 0 100 13.18002005h38.6717294a147.3402194 147.3402194 0 0124.84201191 42.63814014h-85.22045903a6.59001002 6.59001002 0 100 13.18002005h89.4628749a147.19756506 147.19756506 0 014.97119344 32.27244203H371.21029123c3.35392745-78.12340589 67.48015205-140.64166803 145.8407983-140.64166803zm148.46904935 596.513752h-296.9380987V837.1803463h296.9380987v20.93297302zm68.22598613-61.6359761v2.71353354h-34.26495094a6.59001002 6.59001002 0 100 13.18002004h33.01207374c-2.64995933 6.79468799-9.2477223 11.62942946-16.96656228 11.62942946h-396.951192c-10.04627645 0-18.21943947-8.17316302-18.21943947-18.21943948v-9.30354356c0-10.04627646 8.17316302-18.21943948 18.21943947-18.21943948h396.951192c10.04627646 0 18.21943948 8.17316302 18.21943948 18.21943948zM453.5559553 765.0778837h-28.90300867v-99.34944052a6.59001002 6.59001002 0 10-13.18002004 0v99.34944052h-7.69403053V597.43578166c0-13.72427734 11.16425227-24.88852962 24.88852962-24.88852962s24.88852962 11.16580287 24.88852962 24.88852962V765.0778837zm88.38366384 0h-21.93000276v-74.5415416a6.59001002 6.59001002 0 10-13.18002005 0v74.5415416H492.1625599V532.31097672c0-13.72427734 11.16425228-24.88852962 24.88852962-24.88852962 13.72427735 0 24.88852962 11.16580287 24.88852962 24.88852962V765.0778837zm88.38366385 0h-5.6550039V661.0766714a6.59001002 6.59001002 0 10-13.18002005 0v104.0012123h-30.9420353V597.43578166c0-13.72427734 11.16425228-24.88852962 24.88852963-24.88852962 13.72427734 0 24.88852962 11.16580287 24.88852962 24.88852962V765.0778837zm35.19685588 0h-22.01683584V597.43578166c0-20.99189546-17.0782048-38.06854966-38.06854966-38.06854966-20.99034487 0-38.06854967 17.0782048-38.06854967 38.06854966V765.0778837h-12.24656451V532.31097672c0-20.99189545-17.0782048-38.06854966-38.06854967-38.06854966-20.99034486 0-38.06854966 17.0782048-38.06854966 38.06854966V765.0778837h-12.24656451V597.43578166c0-20.99189546-17.0782048-38.06854966-38.06854967-38.06854966S390.598876 576.4454368 390.598876 597.43578166V765.0778837h-22.01683584V504.86242203h61.1087753a6.59001002 6.59001002 0 100-13.18002004h-61.1087753v-17.34025461h296.9380987V765.0778837zM733.746125 442.94268785c0 10.04627646-8.17316302 18.21943948-18.21943948 18.21943948h-396.951192c-8.7515333 0-16.07652327-6.20391296-17.82093769-14.44375138h82.42164301a6.59001002 6.59001002 0 100-13.18002005h-82.81549302c.05582126-9.99975874 8.20417483-18.11865108 18.2147877-18.11865108h396.951192c10.04627646 0 18.21943948 8.17316302 18.21943948 18.21943947v9.30354356z" transform="matrix(1.00868 0 0 1.00868 2.04840235 10.24057456)"/>
  </g>
  <path d="M107.52983093 647.3786621c-.71999359 1.32000733-1.83000183 1.97998048-3.33000183 1.97998048-.8999939 0-1.91999817-.32995606-3.05999756-.98999024-1.13999939-.65997314-2.5333252-1.39666748-4.17999267-2.20996093-1.65333557-.80670166-3.62000275-1.55670166-5.90000916-2.25-2.27999878-.68670655-4.97999573-1.0300293-8.09999084-1.0300293-2.70000458 0-5.13000489.34332275-7.29000855 1.0300293-2.15999603.69329834-4.00332641 1.64001464-5.52999878 2.83996582-1.53333282 1.2000122-2.70666504 2.59667968-3.51999664 4.19000244-.80666351 1.58666992-1.20999908 3.30999756-1.20999908 5.1699829 0 2.34002686.67333221 4.29003907 2.01999664 5.85003663 1.35334015 1.55999756 3.13999939 2.90997314 5.3600006 4.0499878 2.22000123 1.14001464 4.73999787 2.14666747 7.5600052 3.02001952 2.81999206.86663819 5.71333313 1.79663086 8.67999267 2.78997803 2.97333527.98669434 5.87000275 2.0800171 8.69000244 3.2800293 2.8199997 1.2000122 5.33999634 2.7000122 7.55999756 4.5 2.22000122 1.7999878 4.00333405 4.00665283 5.3500061 6.61999511 1.35333253 2.60662842 2.02999879 5.73999024 2.02999879 9.39996338 0 4.20001221-.75 8.08337403-2.25 11.65002442-1.5 3.57336426-3.72000123 6.66668701-6.66000367 9.2800293-2.94000244 2.60662841-6.53999328 4.65997314-10.80000305 6.15997314-4.2599945 1.5-9.17999267 2.25-14.7599945 2.25-6.36000062 0-12.12000275-1.03668213-17.27999878-3.10998535-5.15999985-2.06671143-9.54000092-4.72003174-13.1399994-7.96002198l3.77999879-6.11999511c.47999954-.7800293 1.04999923-1.38000488 1.70999908-1.7999878.65999985-.4199829 1.52999878-.63000488 2.61000061-.63000488 1.08000183 0 2.22000122.41998291 3.41999817 1.26000977 1.20000076.83996582 2.65333557 1.7699585 4.3600006 2.78997802 1.71333314 1.02001954 3.78666688 1.95001221 6.22000123 2.78997803 2.42666626.84002686 5.47000122 1.26000977 9.12999725 1.26000977 3.12000275 0 5.8500061-.40332031 8.19000244-1.20996094 2.33999634-.8133545 4.29000092-1.91003418 5.84999848-3.29003906 1.56000519-1.38000488 2.71333313-2.9699707 3.45999908-4.7699585.75333405-1.80004883 1.13000489-3.72003174 1.13000489-5.76000976 0-2.52001953-.67666626-4.60333252-2.02999878-6.25-1.34667206-1.65332032-3.13000489-3.0633545-5.3500061-4.2300415-2.22000123-1.17327882-4.7566681-2.19665528-7.61000062-3.0699463-2.84666443-.86669922-5.75666809-1.7800293-8.72999572-2.74005127-2.96666718-.95996093-5.87666321-2.05328369-8.73000336-3.27996826-2.84666443-1.2333374-5.37999725-2.7800293-7.59999848-4.64001465-2.22000122-1.85998535-4.00333404-4.1533203-5.34999847-6.88000488-1.35333252-2.7333374-2.02999878-6.0499878-2.02999878-9.9500122 0-3.47998048.7199974-6.82666016 2.15999603-10.03997803 1.44000245-3.20666504 3.54000092-6.02331543 6.30000306-8.45001221 2.75999832-2.43334961 6.15000152-4.36999512 10.16999816-5.80999756 4.02000428-1.44000244 8.61000061-2.15997314 13.77000428-2.15997314 6 0 11.3833313.94665527 16.1499939 2.83996582 4.77333068 1.88671875 8.90000152 4.4800415 12.38000488 7.7800293l-3.6000061 5.84997558zm62.00984192-16.4699707c5.45999146 0 10.5.91662598 15.11999512 2.75 4.61999512 1.82666016 8.6100006 4.46667481 11.97000122 7.91998292 3.36000061 3.44665527 5.9833374 7.70666504 7.86999512 12.77996826 1.89334106 5.06671142 2.83999633 10.84002685 2.83999633 17.32000732 0 2.52001953-.269989 4.2000122-.80999755 5.04003906-.53999329.83996583-1.55999756 1.26000977-3.05999756 1.26000977h-60.66000366c.12001037 5.75994873.90000915 10.7699585 2.3400116 15.02996826 1.44000243 4.26000977 3.41999816 7.8166504 5.94000243 10.66998291 2.51998902 2.84667969 5.51998902 4.97338867 8.99998474 6.38000489 3.480011 1.41333007 7.38000489 2.11999511 11.70001221 2.11999511 4.01998902 0 7.48666382-.46331787 10.3999939-1.38995361 2.90667724-.93334961 5.41000366-1.94000244 7.51000976-3.02001953 2.09999085-1.0800171 3.85665894-2.08666992 5.26998902-3.02001953 1.40667724-.92663575 2.61999511-1.38995362 3.64001465-1.38995362 1.31999206 0 2.33999633.50994873 3.05999755 1.52996826l4.5 5.8499756c-1.98001098 2.4000244-4.3500061 4.48669433-7.11001586 6.26000976-2.75999451 1.7666626-5.71665955 3.22003173-8.86999512 4.36004638-3.14666748 1.13995362-6.3999939 1.99328614-9.7599945 2.55999756-3.36000062.57330322-6.69000245.85998535-9.9900055.85998535-6.2999878 0-12.10665894-1.06335449-17.41999817-3.19000244-5.30667114-2.13336181-9.8933258-5.25335693-13.7599945-9.35998535-3.8733368-4.11334228-6.8899994-9.2000122-9.05000306-15.26000977-2.16000366-6.05999755-3.2400055-13.02001953-3.2400055-20.88000488 0-6.35998535.97333527-12.2999878 2.91999818-17.82000732 1.95333862-5.52001953 4.76000976-10.30664063 8.41999817-14.35998535 3.66000366-4.0466919 8.13000488-7.22332764 13.41000366-9.5300293 5.27999878-2.31329346 11.22000122-3.4699707 17.82000732-3.4699707m.36000061 11.78997802c-7.7400055 0-13.83000183 2.23669434-18.27000427 6.71002198-4.44000244 4.4666748-7.19999695 10.65997314-8.27999878 18.57995605h49.58999634c0-3.7199707-.5099945-7.12664795-1.52999878-10.2199707-1.01998901-3.08666992-2.51998901-5.75335694-4.5-8-1.97999573-2.25335694-4.39666748-3.99334717-7.25-5.2199707-2.84666443-1.2333374-6.1000061-1.85003663-9.7599945-1.85003663zm57.86979675 80.82000733v-91.16998291h9.17999268c1.7400055 0 2.94000244.33001709 3.6000061.98999023.66000367.65997315 1.11000061 1.7999878 1.3500061 3.41998291l1.08000184 14.22003174c3.11999512-6.36004639 6.97332764-11.3267212 11.55999756-14.90002441 4.59333801-3.5666504 9.97999572-5.34997559 16.1599884-5.34997559 2.52001953 0 4.80001831.2833252 6.83999634.84997559 2.04000854.57330322 3.9300232 1.36999511 5.67001343 2.39001464l-2.07000733 11.9699707c-.4199829 1.5-1.34997558 2.25-2.78997803 2.25-.84002685 0-2.13000488-.28668212-3.87002563-.85998534-1.73999023-.5666504-4.16998291-.84997559-7.28997803-.84997559-5.58001709 0-10.24667358 1.61999512-14.00001526 4.85998535-3.74665832 3.23999024-6.87998962 7.9500122-9.3999939 14.13000488v58.0499878h-16.02000427zm61.01983643-91.16998291h13.14001465c1.25997925 0 2.30999756.33001709 3.1499939.98999023.83999633.65997315 1.44000244 1.44000244 1.79998779 2.34002686l23.13000488 58.67999267c.83999634 2.15997315 1.5 4.3199463 1.98001099 6.47998047.47998047 2.15997315.92999267 4.28997803 1.34997558 6.39001465.48001099-2.10003662.99002076-4.2300415 1.5300293-6.39001465.53997803-2.16003418 1.22998047-4.32000732 2.0699768-6.47998047l23.3999939-58.67999267c.36001587-.96002198.94335938-1.75335694 1.75-2.38000489.8133545-.63336181 1.82000733-.9500122 3.02001953-.9500122h12.51000977l-37.17001343 91.1699829h-14.48999023l-37.17001343-91.1699829zm137.42984009-1.44000244c5.45999145 0 10.5.91662597 15.11999512 2.75 4.61999511 1.82666015 8.60998535 4.4666748 11.97000122 7.9199829 3.35998535 3.44665528 5.9833374 7.70666505 7.86999511 12.77996827 1.89334107 5.06671142 2.83999634 10.84002685 2.83999634 17.32000732 0 2.52001953-.26998901 4.2000122-.80999756 5.04003906-.54000854.83996583-1.55999756 1.26000977-3.05999756 1.26000977h-60.66000366c.11999512 5.75994873.8999939 10.7699585 2.33999634 15.02996826 1.44000244 4.26000977 3.42001343 7.8166504 5.94000244 10.66998291 2.51998902 2.84667969 5.51998902 4.97338867 9 6.38000489 3.48001099 1.41333007 7.38000488 2.11999511 11.7000122 2.11999511 4.01998902 0 7.48666383-.46331787 10.3999939-1.38995361 2.90667725-.93334961 5.41000367-1.94000244 7.51000977-3.02001953 2.09997559-1.0800171 3.85665894-2.08666992 5.26998901-3.02001953 1.40664673-.92663575 2.61999512-1.38995362 3.63998414-1.38995362 1.32000732 0 2.34002685.50994873 3.05999755 1.52996826l4.5 5.8499756c-1.97998046 2.4000244-4.34997558 4.48669433-7.10998535 6.26000976-2.76000976 1.7666626-5.7166748 3.22003173-8.86999511 4.36004638-3.14666749 1.13995362-6.3999939 1.99328614-9.76000977 2.55999756-3.35998535.57330322-6.69000244.85998535-9.98999023.85998535-6.2999878 0-12.10665894-1.06335449-17.42001343-3.19000244-5.30667115-2.13336181-9.89331055-5.25335693-13.75997925-9.35998535-3.87335205-4.11334228-6.89001465-9.2000122-9.05001831-15.26000977-2.16000366-6.05999755-3.23999024-13.02001953-3.23999024-20.88000488 0-6.35998535.97332764-12.2999878 2.91998291-17.82000732 1.95333863-5.52001953 4.76000977-10.30664063 8.42001343-14.35998535 3.66000366-4.0466919 8.13000489-7.22332764 13.41000366-9.5300293 5.27999878-2.31329346 11.22000122-3.4699707 17.82000733-3.4699707m.35998535 11.78997802c-7.73999023 0-13.82998657 2.23669434-18.26998901 6.71002198-4.44000245 4.4666748-7.20001221 10.65997314-8.27999878 18.57995605h49.58999634c0-3.7199707-.51000977-7.12664795-1.52999878-10.2199707-1.01998902-3.08666992-2.51998902-5.75335694-4.5-8-1.980011-2.25335694-4.39666748-3.99334717-7.25-5.2199707-2.8466797-1.2333374-6.1000061-1.85003663-9.76000977-1.85003663zm57.86984253 80.82000733v-91.16998291h9.17999268c1.73999023 0 2.94000244.33001709 3.6000061.98999023.65997314.65997315 1.10998535 1.7999878 1.34997558 3.41998291l1.0800171 14.22003174c3.11999511-6.36004639 6.97332763-11.3267212 11.55999755-14.90002441 4.59335327-3.5666504 9.98001099-5.34997559 16.16000367-5.34997559 2.52001953 0 4.79998779.2833252 6.83996582.84997559 2.04003906.57330322 3.92999267 1.36999511 5.67004394 2.39001464l-2.07000732 11.9699707c-.42004395 1.5-1.34997559 2.25-2.79003907 2.25-.83996582 0-2.12994384-.28668212-3.86999511-.85998534-1.73999024-.5666504-4.16998291-.84997559-7.28997803-.84997559-5.58001709 0-10.24664307 1.61999512-14 4.85998535-3.74667358 3.23999024-6.88000488 7.9500122-9.3999939 14.13000488v58.0499878h-16.01998901zm90.35992432-132.57000733v132.57000733h-16.02001954V590.94866943h16.02001954zm64.34979248 39.96002198c5.46002197 0 10.5.91662597 15.11999511 2.75 4.61999512 1.82666015 8.61004639 4.4666748 11.97003174 7.9199829 3.35998535 3.44665528 5.9833374 7.70666505 7.86999512 12.77996827 1.89331055 5.06671142 2.84002685 10.84002685 2.84002685 17.32000732 0 2.52001953-.27001953 4.2000122-.81005859 5.04003906-.53997803.83996583-1.55993652 1.26000977-3.05993652 1.26000977h-60.66003418c.11999511 5.75994873.90002441 10.7699585 2.34002685 15.02996826 1.44000244 4.26000977 3.41998291 7.8166504 5.94000244 10.66998291 2.5199585 2.84667969 5.5199585 4.97338867 9 6.38000489 3.47998047 1.41333007 7.37994385 2.11999511 11.69995118 2.11999511 4.02001953 0 7.48669433-.46331787 10.40002441-1.38995361 2.90667725-.93334961 5.40997314-1.94000244 7.51000977-3.02001953 2.09997558-1.0800171 3.85662841-2.08666992 5.27001953-3.02001953 1.4066162-.92663575 2.61999511-1.38995362 3.63995361-1.38995362 1.32000732 0 2.34002686.50994873 3.05999756 1.52996826l4.5 5.8499756c-1.97998047 2.4000244-4.34997559 4.48669433-7.10998535 6.26000976-2.76000977 1.7666626-5.7166748 3.22003173-8.86999512 4.36004638-3.14666748 1.13995362-6.40002441 1.99328614-9.76000977 2.55999756-3.35998535.57330322-6.69000244.85998535-9.98999023.85998535-6.2999878 0-12.10668945-1.06335449-17.41998291-3.19000244-5.30670166-2.13336181-9.89337158-5.25335693-13.76000977-9.35998535-3.87335205-4.11334228-6.89001464-9.2000122-9.04998779-15.26000977-2.16003418-6.05999755-3.24005127-13.02001953-3.24005127-20.88000488 0-6.35998535.97338867-12.2999878 2.92004395-17.82000732 1.9533081-5.52001953 4.76000976-10.30664063 8.4199829-14.35998535 3.65997315-4.0466919 8.13000489-7.22332764 13.40997315-9.5300293 5.2800293-2.31329346 11.22003174-3.4699707 17.82000733-3.4699707m.36004638 11.78997802c-7.74005127 0-13.83001709 2.23669434-18.27001953 6.71002198-4.44000244 4.4666748-7.2000122 10.65997314-8.2800293 18.57995605h49.59002686c0-3.7199707-.51000977-7.12664795-1.5300293-10.2199707-1.0199585-3.08666992-2.5199585-5.75335694-4.5-8-1.97998047-2.25335694-4.39666748-3.99334717-7.25-5.2199707-2.84661865-1.2333374-6.09997558-1.85003663-9.75994873-1.85003663zm110.06976319 4.67999268c-.7199707 1.32000732-1.82995606 1.97998047-3.32995606 1.97998047-.90002441 0-1.9199829-.32995606-3.05999756-.98999024-1.14001465-.65997314-2.5333252-1.39666748-4.17999267-2.20996093-1.65338135-.80670166-3.61999512-1.55670166-5.90002442-2.25-2.27996826-.68670655-4.97998047-1.0300293-8.09997558-1.0300293-2.70001221 0-5.13000489.34332275-7.29003906 1.0300293-2.15997315.69329834-4.0032959 1.64001464-5.52996827 2.83996582-1.5333252 1.2000122-2.70666504 2.59667968-3.52001953 4.19000244-.80664062 1.58666992-1.21002197 3.30999756-1.21002197 5.1699829 0 2.34002686.67333984 4.29003907 2.02001953 5.85003663 1.35333252 1.55999756 3.14001465 2.90997314 5.35998535 4.0499878 2.22003174 1.14001464 4.74005127 2.14666747 7.55999756 3.02001952 2.82000733.86663819 5.7133789 1.79663086 8.68005371 2.78997803 2.97332764.98669434 5.86999512 2.0800171 8.69000244 3.2800293 2.8199463 1.2000122 5.33996582 2.7000122 7.55999756 4.5 2.2199707 1.7999878 4.0032959 4.00665283 5.34997559 6.61999511 1.35333252 2.60662842 2.02996826 5.73999024 2.02996826 9.39996338 0 4.20001221-.75 8.08337403-2.25 11.65002442-1.5 3.57336426-3.7199707 6.66668701-6.65997315 9.2800293-2.94000244 2.60662841-6.53997802 4.65997314-10.79998779 6.15997314-4.26000976 1.5-9.17999267 2.25-14.76000976 2.25-6.35998536 0-12.11999512-1.03668213-17.2800293-3.10998535-5.15997315-2.06671143-9.53997803-4.72003174-13.13995361-7.96002198l3.77996826-6.11999511c.4800415-.7800293 1.0499878-1.38000488 1.71002197-1.7999878.65997314-.4199829 1.52996826-.63000488 2.60998535-.63000488 1.0800171 0 2.22003174.41998291 3.41998291 1.26000977 1.2000122.83996582 2.65338135 1.7699585 4.36004639 2.78997802 1.71331787 1.02001954 3.7866211 1.95001221 6.2199707 2.78997803 2.42669678.84002686 5.47003174 1.26000977 9.13000488 1.26000977 3.11999512 0 5.8499756-.40332031 8.19000245-1.20996094 2.34002685-.8133545 4.28997802-1.91003418 5.84997558-3.29003906 1.55999756-1.38000488 2.7133789-2.9699707 3.46002197-4.7699585.75335694-1.80004883 1.13000489-3.72003174 1.13000489-5.76000976 0-2.52001953-.67669678-4.60333252-2.0300293-6.25-1.34661865-1.65332032-3.12994385-3.0633545-5.34997559-4.2300415-2.2199707-1.17327882-4.75665283-2.19665528-7.60998535-3.0699463-2.84667968-.86669922-5.75665283-1.7800293-8.7300415-2.74005127-2.96661377-.95996093-5.87664795-2.05328369-8.72998047-3.27996826-2.84667969-1.2333374-5.38000488-2.7800293-7.59997559-4.64001465-2.22003173-1.85998535-4.00335693-4.1533203-5.35003662-6.88000488-1.35333252-2.7333374-2.02996826-6.0499878-2.02996826-9.9500122 0-3.47998048.7199707-6.82666016 2.15997315-10.03997803 1.44000244-3.20666504 3.54003906-6.02331543 6.29998779-8.45001221 2.76000976-2.43334961 6.15002441-4.36999512 10.17004394-5.80999756 4.0199585-1.44000244 8.60998536-2.15997314 13.7699585-2.15997314 6 0 11.38336182.94665527 16.15002441 2.83996582 4.77331543 1.88671875 8.90002442 4.4800415 12.38000489 7.7800293l-3.60003662 5.84997558zm78.11987304 0c-.7199707 1.32000732-1.82995605 1.97998047-3.32995605 1.97998047-.90002442 0-1.91998291-.32995606-3.05999756-.98999024-1.14001465-.65997314-2.5333252-1.39666748-4.17999268-2.20996093-1.65338134-.80670166-3.61999511-1.55670166-5.90002441-2.25-2.27996826-.68670655-4.97998047-1.0300293-8.09997559-1.0300293-2.7000122 0-5.13000488.34332275-7.29003906 1.0300293-2.15997314.69329834-4.0032959 1.64001464-5.52996826 2.83996582-1.5333252 1.2000122-2.70666504 2.59667968-3.52001953 4.19000244-.80664063 1.58666992-1.21002197 3.30999756-1.21002197 5.1699829 0 2.34002686.67333984 4.29003907 2.02001953 5.85003663 1.35333252 1.55999756 3.14001465 2.90997314 5.35998535 4.0499878 2.22003174 1.14001464 4.74005127 2.14666747 7.55999756 3.02001952 2.82000732.86663819 5.7133789 1.79663086 8.6800537 2.78997803 2.97332765.98669434 5.86999513 2.0800171 8.69000245 3.2800293 2.81994629 1.2000122 5.33996582 2.7000122 7.55999756 4.5 2.2199707 1.7999878 4.0032959 4.00665283 5.34997558 6.61999511 1.35333252 2.60662842 2.02996827 5.73999024 2.02996827 9.39996338 0 4.20001221-.75 8.08337403-2.25 11.65002442-1.5 3.57336426-3.7199707 6.66668701-6.65997315 9.2800293-2.94000244 2.60662841-6.53997803 4.65997314-10.7999878 6.15997314-4.26000976 1.5-9.17999267 2.25-14.76000976 2.25-6.35998535 0-12.11999511-1.03668213-17.2800293-3.10998535-5.15997314-2.06671143-9.53997802-4.72003174-13.1399536-7.96002198l3.77996825-6.11999511c.4800415-.7800293 1.0499878-1.38000488 1.71002198-1.7999878.65997314-.4199829 1.52996826-.63000488 2.60998535-.63000488 1.08001709 0 2.22003174.41998291 3.4199829 1.26000977 1.20001222.83996582 2.65338136 1.7699585 4.3600464 2.78997802 1.71331787 1.02001954 3.78662109 1.95001221 6.2199707 2.78997803 2.42669678.84002686 5.47003174 1.26000977 9.13000488 1.26000977 3.11999512 0 5.84997559-.40332031 8.19000244-1.20996094 2.34002686-.8133545 4.28997803-1.91003418 5.84997559-3.29003906 1.55999756-1.38000488 2.7133789-2.9699707 3.46002197-4.7699585.75335694-1.80004883 1.13000488-3.72003174 1.13000488-5.76000976 0-2.52001953-.67669677-4.60333252-2.0300293-6.25-1.34661864-1.65332032-3.12994384-3.0633545-5.34997558-4.2300415-2.2199707-1.17327882-4.75665283-2.19665528-7.60998535-3.0699463-2.84667969-.86669922-5.75665283-1.7800293-8.7300415-2.74005127-2.96661377-.95996093-5.87664795-2.05328369-8.72998047-3.27996826-2.84667969-1.2333374-5.38000489-2.7800293-7.59997559-4.64001465-2.22003174-1.85998535-4.00335693-4.1533203-5.35003662-6.88000488-1.35333252-2.7333374-2.02996826-6.0499878-2.02996826-9.9500122 0-3.47998048.7199707-6.82666016 2.15997314-10.03997803 1.44000244-3.20666504 3.54003907-6.02331543 6.2999878-8.45001221 2.76000976-2.43334961 6.15002441-4.36999512 10.17004394-5.80999756 4.0199585-1.44000244 8.60998535-2.15997314 13.7699585-2.15997314 6 0 11.38336181.94665527 16.15002441 2.83996582 4.77331543 1.88671875 8.90002442 4.4800415 12.38000488 7.7800293l-3.60003662 5.84997558zm78.11987305 0c-.7199707 1.32000732-1.82995605 1.97998047-3.32995605 1.97998047-.90002442 0-1.91998291-.32995606-3.05999756-.98999024-1.14001465-.65997314-2.5333252-1.39666748-4.17999268-2.20996093-1.65338135-.80670166-3.61999512-1.55670166-5.90002441-2.25-2.27996826-.68670655-4.97998047-1.0300293-8.09997559-1.0300293-2.7000122 0-5.13000488.34332275-7.29003906 1.0300293-2.15997315.69329834-4.0032959 1.64001464-5.52996826 2.83996582-1.5333252 1.2000122-2.70666504 2.59667968-3.52001953 4.19000244-.80664063 1.58666992-1.21002198 3.30999756-1.21002198 5.1699829 0 2.34002686.67333985 4.29003907 2.02001953 5.85003663 1.35333252 1.55999756 3.14001465 2.90997314 5.35998536 4.0499878 2.22003173 1.14001464 4.74005127 2.14666747 7.55999755 3.02001952 2.82000733.86663819 5.71337891 1.79663086 8.68005372 2.78997803 2.97332763.98669434 5.86999511 2.0800171 8.69000244 3.2800293 2.81994629 1.2000122 5.33996582 2.7000122 7.55999756 4.5 2.2199707 1.7999878 4.0032959 4.00665283 5.34997558 6.61999511 1.35333252 2.60662842 2.02996826 5.73999024 2.02996826 9.39996338 0 4.20001221-.75 8.08337403-2.25 11.65002442-1.5 3.57336426-3.7199707 6.66668701-6.65997314 9.2800293-2.94000244 2.60662841-6.53997803 4.65997314-10.7999878 6.15997314-4.26000976 1.5-9.17999267 2.25-14.76000976 2.25-6.35998535 0-12.11999512-1.03668213-17.2800293-3.10998535-5.15997314-2.06671143-9.53997802-4.72003174-13.13995361-7.96002198l3.77996826-6.11999511c.4800415-.7800293 1.0499878-1.38000488 1.71002197-1.7999878.65997315-.4199829 1.52996827-.63000488 2.60998536-.63000488 1.08001709 0 2.22003173.41998291 3.4199829 1.26000977 1.20001221.83996582 2.65338135 1.7699585 4.3600464 2.78997802 1.71331786 1.02001954 3.78662109 1.95001221 6.2199707 2.78997803 2.42669677.84002686 5.47003173 1.26000977 9.13000488 1.26000977 3.11999512 0 5.84997558-.40332031 8.19000244-1.20996094 2.34002686-.8133545 4.28997803-1.91003418 5.84997559-3.29003906 1.55999755-1.38000488 2.7133789-2.9699707 3.46002197-4.7699585.75335693-1.80004883 1.13000488-3.72003174 1.13000488-5.76000976 0-2.52001953-.67669678-4.60333252-2.0300293-6.25-1.34661865-1.65332032-3.12994384-3.0633545-5.34997558-4.2300415-2.2199707-1.17327882-4.75665283-2.19665528-7.60998535-3.0699463-2.84667969-.86669922-5.75665283-1.7800293-8.7300415-2.74005127-2.96661378-.95996093-5.87664796-2.05328369-8.72998048-3.27996826-2.84667968-1.2333374-5.38000488-2.7800293-7.59997558-4.64001465-2.22003174-1.85998535-4.00335694-4.1533203-5.35003662-6.88000488-1.35333252-2.7333374-2.02996826-6.0499878-2.02996826-9.9500122 0-3.47998048.7199707-6.82666016 2.15997314-10.03997803 1.44000244-3.20666504 3.54003906-6.02331543 6.2999878-8.45001221 2.76000976-2.43334961 6.1500244-4.36999512 10.17004394-5.80999756 4.0199585-1.44000244 8.60998535-2.15997314 13.7699585-2.15997314 6 0 11.38336181.94665527 16.1500244 2.83996582 4.77331544 1.88671875 8.90002442 4.4800415 12.3800049 7.7800293l-3.60003663 5.84997558zm92.87988281 76.14001465h-7.10998535c-1.55999756 0-2.82000732-.23999024-3.77996826-.7199707-.96002197-.4800415-1.59002686-1.5-1.89001465-3.0600586l-1.7999878-8.45996094c-2.4000244 2.15997315-4.73999023 4.0966797-7.02001952 5.80999756-2.2800293 1.70666504-4.67999268 3.14666748-7.20001221 4.32000733-2.5199585 1.16662597-5.20666504 2.04998779-8.05999756 2.64996338-2.84667969.60003662-6.01000976.9000244-9.48999023.9000244-3.53997803 0-6.85668946-.49334716-9.95001221-1.47998046-3.08666992-.99334717-5.7699585-2.4800415-8.0499878-4.46002197-2.28002929-1.97998047-4.09667968-4.4833374-5.4500122-7.51000977-1.34667969-3.0333252-2.0199585-6.61999512-2.0199585-10.76000976 0-3.59997559.98999024-7.06329346 2.9699707-10.38995362 1.97998048-3.33337402 5.17663575-6.29003906 9.59002686-8.87005615 4.40661621-2.57995605 10.17999268-4.69665527 17.3199463-6.34997559 7.14001464-1.64666748 15.87005614-2.58996582 26.19000243-2.83001708v-7.10998536c0-7.08001709-1.5166626-12.4333496-4.54998779-16.05999755-3.02667236-3.63330079-7.51000977-5.45001221-13.4500122-5.45001221-3.89996339 0-7.18664552.4967041-9.85998536 1.49005127-2.66662598.9866333-4.97668457 2.09332275-6.92999267 3.31994629-1.94665528 1.2333374-3.62664795 2.34338379-5.03997803 3.33001709-1.40667725.99334716-2.80004883 1.48999023-4.17999268 1.48999023-1.08001709 0-2.02667236-.2833252-2.84002685-.84997559-.80664063-.57336425-1.45001221-1.2800293-1.92999268-2.11999511l-2.88000488-5.13000489c5.03997803-4.86004638 10.4699707-8.48999023 16.28997803-10.89001464 5.82000732-2.39996338 12.27001953-3.59997559 19.35003662-3.59997559 5.09997558 0 9.63000488.83996582 13.58996582 2.5199585 3.96002197 1.6800537 7.29003906 4.02001953 9.99005127 7.02001953 2.69995117 3 4.73999023 6.63000488 6.11999511 10.89001465 1.38000489 4.26000976 2.0699463 8.94000244 2.0699463 14.03997802v58.32000733m-41.57995606-9.80999756c2.82000732 0 5.39996338-.2833252 7.73999023-.84997559 2.33996582-.57336425 4.54663086-1.38336181 6.61999512-2.4300537 2.06665039-1.0532837 4.04333496-2.32995606 5.92999268-3.82995606 1.89331054-1.5 3.73999023-3.21002198 5.53997802-5.13000489v-18.98999023c-7.38000488.23999023-13.64996338.82666016-18.80999756 1.75994873-5.15997314.92669678-9.35998535 2.14001465-12.59997558 3.64001465-3.23999024 1.5-5.59332276 3.27001953-7.05999756 5.30999756-1.47332764 2.04003906-2.21002197 4.32000732-2.21002197 6.84002685 0 2.39996338.39001465 4.4699707 1.17004394 6.20996094.77996826 1.74005127 1.82995606 3.16668701 3.14996338 4.2800293 1.32000733 1.10668945 2.88000488 1.91668701 4.67999268 2.42999267 1.79998779.50665284 3.75.76000977 5.85003662.76000977zm83.6998291-122.76000977v132.57000733h-16.02001953V590.94866943h16.02001953zm95.21984863 132.57000733h-7.10998535c-1.55993652 0-2.81994629-.23999024-3.7800293-.7199707-.95996093-.4800415-1.58996582-1.5-1.89001464-3.0600586l-1.79992676-8.45996094c-2.40002442 2.15997315-4.73999024 4.0966797-7.02001953 5.80999756-2.2800293 1.70666504-4.68005371 3.14666748-7.19995118 4.32000733-2.52001953 1.16662597-5.20666503 2.04998779-8.06005859 2.64996338-2.84667969.60003662-6.01000976.9000244-9.48999023.9000244-3.54003907 0-6.85668946-.49334716-9.94995118-1.47998046-3.08666992-.99334717-5.77001953-2.4800415-8.05004882-4.46002197-2.2800293-1.97998047-4.0966797-4.4833374-5.44995118-7.51000977-1.34667968-3.0333252-2.02001953-6.61999512-2.02001953-10.76000976 0-3.59997559.98999024-7.06329346 2.9699707-10.38995362 1.97998048-3.33337402 5.17663575-6.29003906 9.58996583-8.87005615 4.40673828-2.57995605 10.1800537-4.69665527 17.32006836-6.34997559 7.14001464-1.64666748 15.86999511-2.58996582 26.1899414-2.83001708v-7.10998536c0-7.08001709-1.51660156-12.4333496-4.54992676-16.05999755-3.0267334-3.63330079-7.51000976-5.45001221-13.45007324-5.45001221-3.90002441 0-7.1866455.4967041-9.85998535 1.49005127-2.66662598.9866333-4.97668457 2.09332275-6.92993164 3.31994629-1.94677734 1.2333374-3.62670898 2.34338379-5.04003906 3.33001709-1.40673828.99334716-2.80004883 1.48999023-4.18005371 1.48999023-1.07995606 0-2.02661133-.2833252-2.83996582-.84997559-.80664063-.57336425-1.44995118-1.2800293-1.93005371-2.11999511l-2.88000489-5.13000489c5.04003907-4.86004638 10.47009278-8.48999023 16.29003907-10.89001464 5.82006835-2.39996338 12.27001953-3.59997559 19.34997558-3.59997559 5.10009766 0 9.63000488.83996582 13.5900879 2.5199585 3.95996093 1.6800537 7.28991698 4.02001953 9.98999023 7.02001953 2.69995117 3 4.73999023 6.63000488 6.11999511 10.89001465 1.38000489 4.26000976 2.0699463 8.94000244 2.0699463 14.03997802v58.32000733m-41.57995606-9.80999756c2.81994629 0 5.40002441-.2833252 7.73999023-.84997559 2.33996582-.57336425 4.54663086-1.38336181 6.61999512-2.4300537 2.06665039-1.0532837 4.04333496-2.32995606 5.93005371-3.82995606 1.89331055-1.5 3.73999023-3.21002198 5.539917-5.13000489v-18.98999023c-7.38000489.23999023-13.65002442.82666016-18.80993653 1.75994873-5.16003418.92669678-9.35998535 2.14001465-12.60009766 3.64001465-3.23999023 1.5-5.59326172 3.27001953-7.05993652 5.30999756-1.47338867 2.04003906-2.20996094 4.32000732-2.20996094 6.84002685 0 2.39996338.39001465 4.4699707 1.16992188 6.20996094.7800293 1.74005127 1.83007812 3.16668701 3.15002441 4.2800293 1.32006836 1.10668945 2.88000488 1.91668701 4.68005371 2.42999267 1.79992676.50665284 3.75.76000977 5.84997559.76000977zm65.87976074 9.80999756V590.94866943h16.02001953v53.64001465c3.90002442-4.14001465 8.2199707-7.45666504 12.95996094-9.9500122 4.73999023-2.48669434 10.19995117-3.72998047 16.38000488-3.72998047 4.97998047 0 9.37670899.82666015 13.19006348 2.47998047 3.80664062 1.64666748 6.98327637 3.98669433 9.52990722 7.02001953 2.55334473 3.02667236 4.48999024 6.6699829 5.8100586 10.92999267 1.31994629 4.26000977 1.97998047 8.9699707 1.97998047 14.13000488v58.0499878h-16.02001953v-58.0499878c0-6.9000244-1.57336426-12.25335693-4.7199707-16.05999755-3.15332032-3.8133545-7.96997071-5.72003174-14.45007325-5.72003174-4.73999023 0-9.16333008 1.14001465-13.26989746 3.4199829-4.11340332 2.2800293-7.91003418 5.37005616-11.39001465 9.27001954v67.14001465h-16.02001953z" transform="translate(60.15356445 -21.65530968)" style="white-space:pre" fill="#bcb8c9" color="#bcb8c9"/>
</svg>